<svg width="20" height="20" viewBox="0 0 20 20" fill="none" xmlns="http://www.w3.org/2000/svg">
<g clip-path="url(#clip0_1_1594)">
<path d="M12.497 1.66626H4.99879C4.55687 1.66626 4.13305 1.84181 3.82056 2.1543C3.50807 2.46679 3.33252 2.89061 3.33252 3.33253V16.6627C3.33252 17.1046 3.50807 17.5284 3.82056 17.8409C4.13305 18.1534 4.55687 18.329 4.99879 18.329H14.9964C15.4383 18.329 15.8622 18.1534 16.1746 17.8409C16.4871 17.5284 16.6627 17.1046 16.6627 16.6627V5.83194L12.497 1.66626Z" stroke="#4A5565" stroke-width="1.66627" stroke-linecap="round" stroke-linejoin="round"/>
<path d="M11.6641 1.66626V4.9988C11.6641 5.44072 11.8396 5.86455 12.1521 6.17703C12.4646 6.48952 12.8884 6.66507 13.3303 6.66507H16.6629" stroke="#4A5565" stroke-width="1.66627" stroke-linecap="round" stroke-linejoin="round"/>
<path d="M8.33131 7.49823H6.66504" stroke="#4A5565" stroke-width="1.66627" stroke-linecap="round" stroke-linejoin="round"/>
<path d="M13.3301 10.8307H6.66504" stroke="#4A5565" stroke-width="1.66627" stroke-linecap="round" stroke-linejoin="round"/>
<path d="M13.3301 14.1633H6.66504" stroke="#4A5565" stroke-width="1.66627" stroke-linecap="round" stroke-linejoin="round"/>
</g>
<defs>
<clipPath id="clip0_1_1594">
<rect width="19.9952" height="19.9952" fill="white"/>
</clipPath>
</defs>
</svg>
