<svg width="20" height="20" viewBox="0 0 20 20" fill="none" xmlns="http://www.w3.org/2000/svg">
<path d="M7.49832 2.4994H3.33265C2.87252 2.4994 2.49951 2.87241 2.49951 3.33254V9.16449C2.49951 9.62462 2.87252 9.99762 3.33265 9.99762H7.49832C7.95845 9.99762 8.33146 9.62462 8.33146 9.16449V3.33254C8.33146 2.87241 7.95845 2.4994 7.49832 2.4994Z" stroke="#00B8D4" stroke-width="1.66627" stroke-linecap="round" stroke-linejoin="round"/>
<path d="M16.6629 2.4994H12.4972C12.0371 2.4994 11.6641 2.87241 11.6641 3.33254V5.83195C11.6641 6.29207 12.0371 6.66508 12.4972 6.66508H16.6629C17.123 6.66508 17.496 6.29207 17.496 5.83195V3.33254C17.496 2.87241 17.123 2.4994 16.6629 2.4994Z" stroke="#00B8D4" stroke-width="1.66627" stroke-linecap="round" stroke-linejoin="round"/>
<path d="M16.6629 9.99762H12.4972C12.0371 9.99762 11.6641 10.3706 11.6641 10.8308V16.6627C11.6641 17.1228 12.0371 17.4958 12.4972 17.4958H16.6629C17.123 17.4958 17.496 17.1228 17.496 16.6627V10.8308C17.496 10.3706 17.123 9.99762 16.6629 9.99762Z" stroke="#00B8D4" stroke-width="1.66627" stroke-linecap="round" stroke-linejoin="round"/>
<path d="M7.49832 13.3302H3.33265C2.87252 13.3302 2.49951 13.7032 2.49951 14.1633V16.6627C2.49951 17.1228 2.87252 17.4958 3.33265 17.4958H7.49832C7.95845 17.4958 8.33146 17.1228 8.33146 16.6627V14.1633C8.33146 13.7032 7.95845 13.3302 7.49832 13.3302Z" stroke="#00B8D4" stroke-width="1.66627" stroke-linecap="round" stroke-linejoin="round"/>
</svg>
